<svg xmlns="http://www.w3.org/2000/svg" viewBox="0 0 190 189.99"><defs><style>.cls-1{fill:#fff;}</style></defs><g id="Layer_2" data-name="Layer 2"><g id="Layer_1-2" data-name="Layer 1"><path class="cls-1" d="M136.24,157.85l.26,0a14.59,14.59,0,0,0,1.05-1.17,4.43,4.43,0,0,0,1-1.78,1.53,1.53,0,0,0,0-.64,1.51,1.51,0,0,0-.25-.58v0a2.24,2.24,0,0,0-2.34-.65,12.58,12.58,0,0,0-4,1.82,10.79,10.79,0,0,0-.93.63l-.43.33c-.13.11-.27.2-.4.32a8.13,8.13,0,0,0-1.37,1.38,3.71,3.71,0,0,0-.23.32l1.42.07,1.24,0,.63,0h.61l2.51,0C135.38,157.88,135.82,157.88,136.24,157.85Z"/><path class="cls-1" d="M161,130.68a3.06,3.06,0,0,0-.36-.36,2.59,2.59,0,0,0-.47-.32,2.93,2.93,0,0,0-.75-.27,2,2,0,0,0-.78,0,3.56,3.56,0,0,0-1.22.39,6.2,6.2,0,0,0-1.28.88,9.76,9.76,0,0,0-1.27,1.38,17.23,17.23,0,0,0-1.36,1.82q-.34.51-.63,1c-.19.33-.39.63-.56.93a10.68,10.68,0,0,0-.76,1.73l-.12.41c0,.13-.07.25-.1.38a4.51,4.51,0,0,0-.12.72,3.26,3.26,0,0,0,.1,1.28,1.76,1.76,0,0,0,.18.5,3.41,3.41,0,0,0,.3.44,4.17,4.17,0,0,0,.37.36,2.73,2.73,0,0,0,.71.44,1.93,1.93,0,0,0,.79.17,3.42,3.42,0,0,0,1.3-.22,6.43,6.43,0,0,0,.71-.32l.37-.21a3.9,3.9,0,0,0,.36-.25,11.15,11.15,0,0,0,1.52-1.39c.26-.27.52-.57.79-.9a11.38,11.38,0,0,0,.75-1.08,20,20,0,0,0,1.25-2.15,11.16,11.16,0,0,0,.68-1.94,6.86,6.86,0,0,0,.2-1.63,3.42,3.42,0,0,0-.29-1.3A3,3,0,0,0,161,130.68Z"/><path class="cls-1" d="M157.61,57.66a4.61,4.61,0,0,0-.68-.85,1.39,1.39,0,0,0-.67-.39H156a1,1,0,0,0-.24,0,1,1,0,0,0-.23.11,1.18,1.18,0,0,0-.33.3.72.72,0,0,0-.13.38,2.23,2.23,0,0,0,.13,1.17,11.65,11.65,0,0,0,.89,1.85c.2.37.42.72.62,1s.41.64.6.92a14.3,14.3,0,0,0,1.18,1.49,11.87,11.87,0,0,0,1.12,1,4,4,0,0,0,1,.59,2.6,2.6,0,0,0,1.41.15A70.43,70.43,0,0,0,157.61,57.66Z"/><path class="cls-1" d="M73.37,162.55a2.26,2.26,0,0,0-.86-.81,9.89,9.89,0,0,0-1.87-.86c-.81-.26-1.53-.54-2.2-.72a10,10,0,0,0-1.87-.36,5.7,5.7,0,0,0-2.66.14,2.44,2.44,0,0,0-1.18.81l.25.11,1.15.48,1.15.48.28.12.3.11.58.21,2.33.85,2.37.74a4.9,4.9,0,0,0,1.06.23,1.46,1.46,0,0,0,.77-.15l.21-.16a.69.69,0,0,0,.16-.18,1,1,0,0,0,.11-.23,1.16,1.16,0,0,0,0-.45A.69.69,0,0,0,73.37,162.55Z"/><path class="cls-1" d="M30.58,133.53a2.71,2.71,0,0,0-.66,2.63,5.62,5.62,0,0,0,.24,1,8.94,8.94,0,0,0,.46,1.06,20.18,20.18,0,0,0,1.5,2.48,17.11,17.11,0,0,0,1.45,1.62c.24.24.48.46.72.67a6.64,6.64,0,0,0,.73.55,4.35,4.35,0,0,0,2.66.86,3.63,3.63,0,0,0,.57-.13l.08,0A75.12,75.12,0,0,1,30.58,133.53Z"/><path class="cls-1" d="M141.64,160.39a1.2,1.2,0,0,0-.81-.48,8.94,8.94,0,0,0-1.79-.06l-1.62.08h-.5a31.35,31.35,0,0,0-2.41,2.48,6.21,6.21,0,0,0-1.25,1.85,1.54,1.54,0,0,0,0,1.27h0a1.3,1.3,0,0,0,.4.41,1.11,1.11,0,0,0,.53.17,4.13,4.13,0,0,0,1.78-.22,7.1,7.1,0,0,0,1.17-.5c.42-.21.88-.47,1.36-.77a13.88,13.88,0,0,0,1.27-.86,9.37,9.37,0,0,0,.93-.85,4.46,4.46,0,0,0,1-1.47,1.1,1.1,0,0,0-.07-1Z"/><path class="cls-1" d="M168,100.26l0-2.48c0-.83,0-1.66-.06-2.49l0-1.24c0-.4,0-.82-.08-1.23a4.38,4.38,0,0,0-.2-1.08,1.39,1.39,0,0,0-.41-.66,1.64,1.64,0,0,0-.22-.14.5.5,0,0,0-.23-.09.71.71,0,0,0-.25,0,1.05,1.05,0,0,0-.43.11.79.79,0,0,0-.31.26,2.14,2.14,0,0,0-.44,1.09,5.47,5.47,0,0,0-.08.9c0,.34,0,.72,0,1.15a17.94,17.94,0,0,0,.13,2.32,10.85,10.85,0,0,0,.29,1.87,6.47,6.47,0,0,0,1.11,2.44,2.36,2.36,0,0,0,1.15.81C168,101.27,168,100.77,168,100.26Z"/><path class="cls-1" d="M187.55,73.64a95,95,0,1,0-71.19,113.9A95,95,0,0,0,187.55,73.64ZM24.9,131.24c-.58-1.11-1.12-2.24-1.63-3.39l-1.65.76L19.39,126,22,124.91a80.14,80.14,0,0,1-3.89-12.17l1.86-.43a80.1,80.1,0,0,0,3.8,11.88l3.42-1.4a2.8,2.8,0,0,0,1-.71,2.94,2.94,0,0,0,.55-1.12,5.75,5.75,0,0,0-.41-3.3,5.33,5.33,0,0,0-1.75-2.89,3.91,3.91,0,0,0-.57-.31,2.51,2.51,0,0,0-.61-.17,3.39,3.39,0,0,0-1.38.1l-.37.11L23,111.61l.47-.11a4.78,4.78,0,0,1,2.85.15,4.87,4.87,0,0,1,2.23,1.88l.23.36c.07.12.16.25.23.38a7.18,7.18,0,0,1,.45.83,14,14,0,0,1,.77,2,15,15,0,0,1,.61,2.08c.07.32.12.63.16.93,0,.15,0,.3,0,.44s0,.28,0,.41a4.65,4.65,0,0,1-.58,2.77,4.44,4.44,0,0,1-2.06,1.77L25,127c.51,1.11,1,2.22,1.6,3.31Zm14.84,15.51a4.15,4.15,0,0,1-.85.18,5.5,5.5,0,0,1-2.6-.4,11.35,11.35,0,0,1-2.89-1.79q-.37-.31-.72-.66c-.23-.23-.46-.47-.69-.73-.46-.5-.91-1-1.35-1.62a16,16,0,0,1-2.57-5.08,9.49,9.49,0,0,1-.35-2.11,5.3,5.3,0,0,1,.25-1.77,3.83,3.83,0,0,1,.75-1.37,3.91,3.91,0,0,1,1.22-1l.3-.16.3-.17,1,1.9,1.14,1.83c.72,1.24,1.57,2.4,2.38,3.59.39.61.84,1.17,1.28,1.74l1.31,1.72,1.39,1.65.59.7a1.08,1.08,0,0,0,.18-.24,2.5,2.5,0,0,0,.35-.8,4.28,4.28,0,0,0-.29-2.71c-.11-.25-.2-.53-.33-.8s-.27-.54-.42-.81A14.71,14.71,0,0,0,38,136.16,15.8,15.8,0,0,0,36.24,134c-.14-.15-.29-.28-.42-.41s-.26-.25-.39-.36a6,6,0,0,0-.76-.57,4.73,4.73,0,0,0-1.48-.59h0l-.41-.64-.36-.67-.73-1.32h0a4.43,4.43,0,0,1,2.45.51c.22.11.42.23.64.36s.44.28.66.44a12.11,12.11,0,0,1,1.33,1.14c.22.22.44.46.66.71s.46.49.69.75a21.34,21.34,0,0,1,1.35,1.78c.4.54.77,1.06,1.09,1.58.17.26.32.53.46.79s.27.52.41.76a10.38,10.38,0,0,1,1.07,2.89,5.12,5.12,0,0,1,0,2.52,4.06,4.06,0,0,1-.45,1.17,4.36,4.36,0,0,1-.79,1,5,5,0,0,1-.73.58,3.8,3.8,0,0,1-.79.37Zm13.2,15L50.29,160c.88-.91,1.76-1.83,2.63-2.75l-.29-.19a7.94,7.94,0,0,1-1.43.78,5.62,5.62,0,0,1-1.35.37,6,6,0,0,1-2.73-.3,3.92,3.92,0,0,1-.71-.29c-.23-.12-.48-.26-.72-.41a15.25,15.25,0,0,1-1.54-1.09,10.47,10.47,0,0,1-1.53-1.52,9,9,0,0,1-1-1.5,4.72,4.72,0,0,1-.49-1.47,4.26,4.26,0,0,1,0-1.38,4.92,4.92,0,0,1,1.44-2.51l.17-.18.19-.18L44,148.45l.55.53.57.51-.13.14-.12.13a2.69,2.69,0,0,0-.76,2.52,4.15,4.15,0,0,0,.75,1.48,7.86,7.86,0,0,0,.73.8c.29.27.61.55,1,.83a9.62,9.62,0,0,0,1.36.93,6.25,6.25,0,0,0,1.36.52,3.82,3.82,0,0,0,2.41-.07,4,4,0,0,0,1.84-1.51l2.32-3.37,2.34,1.54Zm23.44,2.35A2.87,2.87,0,0,1,76,165a2.19,2.19,0,0,1-.75.64,3.5,3.5,0,0,1-1.69.36,8.62,8.62,0,0,1-1.13-.1l-.63-.12a4.26,4.26,0,0,1-.67-.2l-2.54-.81c-.21-.07-.42-.14-.63-.23l-.62-.23L66,163.86l-1.25-.47-1.22-.53-1.22-.53-.35-.15-.07.16-.08.16a.76.76,0,0,0-.06.16,2,2,0,0,0-.08.72,1.84,1.84,0,0,0,.21.7,4.19,4.19,0,0,0,1.41,1.49c.17.12.36.25.57.37l.68.36c.49.24,1,.49,1.63.74.41.16.78.32,1.15.44s.71.2,1,.29a9.29,9.29,0,0,0,1.66.28,3.25,3.25,0,0,0,1.89-.29,1.66,1.66,0,0,0,.69-.79v0l1.48.45.73.22.74.19s0,0,0,0v0a3.62,3.62,0,0,1-1,1.48,5.12,5.12,0,0,1-3,.8,8.31,8.31,0,0,1-1.22,0,13.6,13.6,0,0,1-1.42-.25c-.51-.12-1-.26-1.63-.43-.29-.09-.59-.17-.89-.29l-.92-.37a22.9,22.9,0,0,1-2.65-1.25,15.5,15.5,0,0,1-1.94-1.38,5.51,5.51,0,0,1-2-2.78,3.61,3.61,0,0,1,.38-2.69l2.74-5,1.22.64.61.32.3.16.31.15c-.63.85-1.26,1.68-1.9,2.51l.29.15A3.57,3.57,0,0,1,65,158.43a6.76,6.76,0,0,1,1.49-.11c.26,0,.53,0,.81.05s.57,0,.88.09a16.47,16.47,0,0,1,1.82.41l.46.14.48.13,1,.32a14.94,14.94,0,0,1,1.55.65,8.35,8.35,0,0,1,1.22.64,3.94,3.94,0,0,1,1.47,1.48,2.29,2.29,0,0,1,.31.91,2.6,2.6,0,0,1-.09,1Zm5,13.11c-.28-.05-.56-.08-.83-.14l-.83-.16L78,176.58l2.91-14,1.37.27L83,163c.23.05.46.08.69.11Zm32.41-6.09a5.71,5.71,0,0,1-.64,1.93,7.23,7.23,0,0,1-1.4,1.72,12.74,12.74,0,0,1-2.1,1.54,17.26,17.26,0,0,1-2.75,1.21c-.51.18-1,.36-1.59.5s-1.13.26-1.72.37-1.2.2-1.83.3l-.47.06-.48,0c-.33,0-.65.05-1,.06-.67,0-1.32.05-2,.05H96.9l-.91-.08a23.25,23.25,0,0,1-3.32-.56,18.52,18.52,0,0,1-2.72-1,11.65,11.65,0,0,1-1.09-.61,10.55,10.55,0,0,1-.91-.71,4.73,4.73,0,0,1-1.74-3.18l1.68.17.84.09.42,0,.42,0v0a4.59,4.59,0,0,0,1.72,2,7.64,7.64,0,0,0,1.48.82,13.14,13.14,0,0,0,1.92.56,20.27,20.27,0,0,0,2.32.34c.83,0,1.72,0,2.66,0,.51,0,1-.06,1.47-.11s.93-.14,1.38-.22a23.87,23.87,0,0,0,2.5-.59,12.12,12.12,0,0,0,3.72-1.94,4.32,4.32,0,0,0,1.6-2.68,3,3,0,0,0,.08-.79,3.66,3.66,0,0,0-.09-.81,3.78,3.78,0,0,0-.24-.79,3.29,3.29,0,0,0-.37-.69,4,4,0,0,0-1-1.12,3.89,3.89,0,0,0-.63-.43c-.23-.13-.47-.24-.73-.36a11,11,0,0,0-3.66-.81,20.64,20.64,0,0,0-2.22-.12c-.39,0-.78,0-1.18,0s-.82,0-1.24,0a20.43,20.43,0,0,0-2.21.23A15.13,15.13,0,0,0,95,166a11,11,0,0,0-1.62.54,9.37,9.37,0,0,0-1.35.66A5.46,5.46,0,0,0,90.09,169v0a7.34,7.34,0,0,1-.81,0l-.8-.07-1.59-.16v0a6.09,6.09,0,0,1,2.3-2.81,12.49,12.49,0,0,1,1.85-1,15,15,0,0,1,2.26-.75,17.06,17.06,0,0,1,2.65-.54l.71-.08.74-.1c.5,0,1-.1,1.55-.12,1.07,0,2.09-.11,3.07-.1.49,0,1,0,1.42.05s.92,0,1.37.06a17.93,17.93,0,0,1,2.51.39,12.11,12.11,0,0,1,2.2.66,8.09,8.09,0,0,1,1.82,1.06,5.83,5.83,0,0,1,1.35,1.41,4.75,4.75,0,0,1,.56,1,5.93,5.93,0,0,1,.37,1.1,5,5,0,0,1,.15.77,6.32,6.32,0,0,1,.06.75,3.55,3.55,0,0,1-.08.73ZM175.34,72.9,161.6,76.67c-.23-.9-.52-1.79-.79-2.69l13.58-4.31c.32,1.07.66,2.14,1,3.23ZM165.17,57.55a16.34,16.34,0,0,1,1.81,5,8.13,8.13,0,0,1,.08,1.91,3.87,3.87,0,0,1-.39,1.48,3.55,3.55,0,0,1-2,1.81l-5.33,2.08-.51-1.27-.54-1.26c1-.24,2.05-.47,3.07-.69l-.13-.3a3.63,3.63,0,0,1-2.4-.49,7.42,7.42,0,0,1-1.21-.87,10.37,10.37,0,0,1-1.19-1.2,18.15,18.15,0,0,1-1.15-1.47c-.36-.53-.73-1.08-1.07-1.69a14,14,0,0,1-1.31-2.77,4.26,4.26,0,0,1-.18-2.07,2.14,2.14,0,0,1,.36-.9,2.87,2.87,0,0,1,.7-.69,2.75,2.75,0,0,1,.92-.42,2.31,2.31,0,0,1,1,0,3.32,3.32,0,0,1,1.53.8,7.8,7.8,0,0,1,1.59,1.89c1,1.48,1.88,3,2.75,4.56.42.79.86,1.56,1.25,2.36.2.41.41.8.6,1.2l.16.34.16-.07.15-.07.16-.09a1.93,1.93,0,0,0,.83-1.18,4.23,4.23,0,0,0-.13-2,15.4,15.4,0,0,0-1.26-3,17.7,17.7,0,0,0-1.2-2,7.85,7.85,0,0,0-1.09-1.28,9.11,9.11,0,0,0-.92-.72,2,2,0,0,0-.72-.28,1.75,1.75,0,0,0-1,.16l0,0c-.54-.87-1.13-1.71-1.71-2.56h0v0a3.68,3.68,0,0,1,1.74-.44,5,5,0,0,1,2.83,1.31,15.42,15.42,0,0,1,3.79,4.95ZM135.45,22l4.36,2.8a76.47,76.47,0,0,1,1.11,15.1l-.45,1.06.23.2,1-.61a74.84,74.84,0,0,1,15.08-1.45l.91,1c.31.34.6.69.9,1s.6.69.88,1l.86,1.07Q155,48,149.53,52.57c-.61-.75-1.2-1.51-1.82-2.24q4.62-4.34,9.18-8.75l-.26-.3-1.63.65a75,75,0,0,0-14.17,1.38c-.83-.73-1.68-1.46-2.55-2.15a72.86,72.86,0,0,0-1.07-14.22l.4-1.7-.32-.2-7.14,10.64-2.52-1.79q3.81-6,7.82-11.94Zm9.24,138.58a4.37,4.37,0,0,1-.5,1.27,6.2,6.2,0,0,1-.44.69,8.57,8.57,0,0,1-.58.7,14.58,14.58,0,0,1-1.56,1.48,11.48,11.48,0,0,1-1,.76c-.36.24-.73.49-1.14.74a25.43,25.43,0,0,1-2.28,1.27,14.6,14.6,0,0,1-2,.74,8.8,8.8,0,0,1-1.7.32,3.85,3.85,0,0,1-1.35-.12,2.39,2.39,0,0,1-1.63-1.27v0a2.38,2.38,0,0,1-.08-1.76,4.5,4.5,0,0,1,.47-1.05,12.38,12.38,0,0,1,.82-1.22,13.82,13.82,0,0,1,1.21-1.32c.23-.23.49-.47.75-.71l.83-.76-.18-.29-1.07,0c-.59,0-1.19,0-1.78,0l-1.75-.06-.87,0-.87-.07-.41,0a6.82,6.82,0,0,0-.2.87,6.15,6.15,0,0,0,.61,3.58l.13.27-.69.34-.34.17-.36.15-1.41.61-.12-.28a7.42,7.42,0,0,1-.48-4.6,9.94,9.94,0,0,1,.42-1.34l-.56-.06-3.33-.55,1.67-.71.84-.36.82-.41,1.58.18a9,9,0,0,1,.72-.91,13.91,13.91,0,0,1,1.85-1.83,5.47,5.47,0,0,1,.54-.41c.18-.13.37-.26.55-.41.38-.28.77-.54,1.19-.8s.78-.48,1.16-.68l.28-.16.27-.15.53-.3a14,14,0,0,1,2-.9c.32-.11.6-.23.89-.31a6.86,6.86,0,0,1,.81-.21,5.45,5.45,0,0,1,1.45-.1,3.42,3.42,0,0,1,1.21.34,2.7,2.7,0,0,1,.92.76,2.64,2.64,0,0,1,.41,2.52,5.4,5.4,0,0,1-.78,1.6,9.23,9.23,0,0,1-.65.86c-.26.28-.55.56-.87.86l.19.27c1-.07,1.77-.1,2.37-.14a6.22,6.22,0,0,1,2,.17,2.3,2.3,0,0,1,1.13.78v0a2.39,2.39,0,0,1,.46,1,2.32,2.32,0,0,1,0,1.08Zm19.21-27.44a7.53,7.53,0,0,1-.31,1.22c-.13.42-.29.84-.48,1.29s-.39.89-.63,1.35a13.78,13.78,0,0,1-.84,1.38,21.34,21.34,0,0,1-1.29,1.79,13.65,13.65,0,0,1-1.35,1.39,7.59,7.59,0,0,1-2.69,1.67,5,5,0,0,1-2.71.15l-.22.27c.86.49,1.73,1,2.6,1.45l3.41,2.81-.53.66-.27.33-.28.32-1.13,1.27L146.54,141l.94-1.06.23-.26.23-.28.44-.55c.65.74,1.3,1.49,1.94,2.24l.2-.26a5.65,5.65,0,0,1-.52-2.56,8.07,8.07,0,0,1,.65-2.78,13.91,13.91,0,0,1,.76-1.49,17,17,0,0,1,1-1.65c.26-.41.54-.78.8-1.14s.52-.71.78-1,.54-.61.81-.89.57-.52.83-.75a6.84,6.84,0,0,1,3.37-1.7,4.29,4.29,0,0,1,.88,0,6.31,6.31,0,0,1,.87.14,4.78,4.78,0,0,1,.85.31,4,4,0,0,1,.79.49,5.48,5.48,0,0,1,.66.61,3.89,3.89,0,0,1,.51.76,6.76,6.76,0,0,1,.37,4Zm8.14-21c-.11.52-.25,1-.38,1.55-1.16-.5-2.32-1-3.49-1.47l-.09.33a6.77,6.77,0,0,1,2.07,2.19,5.66,5.66,0,0,1,.51,1.25,6.62,6.62,0,0,1,.17,1.4,9.39,9.39,0,0,1-.13,1.59c0,.29-.11.58-.19.89a7.68,7.68,0,0,1-.3.93,9.43,9.43,0,0,1-1.92,3.45,4.24,4.24,0,0,1-5.33,1l-.22-.09-.24-.11c.11-.23.2-.47.3-.7l.29-.71.59-1.43.18.08.16.06a3.35,3.35,0,0,0,1.4.26,2.53,2.53,0,0,0,1.24-.43,4.14,4.14,0,0,0,1.08-1.24,8.82,8.82,0,0,0,.51-1,8.55,8.55,0,0,0,.45-1.19,8.1,8.1,0,0,0,.4-3.05,3.88,3.88,0,0,0-1-2.24,4,4,0,0,0-2-1.17l-4-1c.11-.46.24-.91.34-1.36l.27-1.37,9.64,1.94Zm2.45-15q0,.39-.06.75c0,.48-.1.94-.17,1.38a11.47,11.47,0,0,1-.57,2.31,6,6,0,0,1-1.9,2.81,3.63,3.63,0,0,1-2.66.6l-5.67-.77.1-.68.07-.68.14-1.36c1,.28,2,.58,3,.88l0-.32a3.52,3.52,0,0,1-1.85-1.59,9.1,9.1,0,0,1-1.11-3c-.06-.29-.1-.6-.15-.9s-.11-.62-.14-.94a16.59,16.59,0,0,1-.11-2c0-.31,0-.6,0-.88s0-.55,0-.8a9,9,0,0,1,.19-1.38,4.35,4.35,0,0,1,.83-1.9,2.11,2.11,0,0,1,.75-.61,2.74,2.74,0,0,1,.94-.26,2.7,2.7,0,0,1,1,.07,2.4,2.4,0,0,1,.87.48,3,3,0,0,1,.53.59,3.81,3.81,0,0,1,.44.85,9.5,9.5,0,0,1,.46,2.42,73,73,0,0,1,.05,9.7l.17,0h.17a.54.54,0,0,0,.18,0,1.89,1.89,0,0,0,1.31-.62,2.81,2.81,0,0,0,.51-.76,5.78,5.78,0,0,0,.35-1.09,13.79,13.79,0,0,0,.25-1.43,12.08,12.08,0,0,0,.11-1.8,19.5,19.5,0,0,0-.1-2.29c0-.33-.07-.63-.12-.91a6.25,6.25,0,0,0-.21-.74,3.65,3.65,0,0,0-.94-1.67,1.73,1.73,0,0,0-1-.36h0l0-.77c0-.26,0-.51-.07-.77L170,87.25a3.54,3.54,0,0,1,1.74.46,3,3,0,0,1,.94.87,6.84,6.84,0,0,1,.47.72c.15.27.29.58.44.92a12.07,12.07,0,0,1,.7,2.57,7.46,7.46,0,0,1,.1.81l.06.87c0,.6,0,1.24,0,1.93,0,.25,0,.51,0,.76ZM163.19,84.1l-.1-.69c0-.23-.07-.46-.12-.69l-.28-1.37,14-2.83.34,1.66c.06.27.1.55.14.83l.13.83Z"/></g></g></svg>